# xmcd
#
# Track frame offsets: 
#        150
#        5552
#        22160
#        46610
#        58497
#        82630
#        110452
#        119285
#        150312
#        183955
#        200175
#        223167
#        247080
#
# Disc length: 3769 seconds
#
# Revision: 0
# Processed by: cddbd v1.5.2PL0 Copyright (c) Steve Scherf et al.
# Submitted via: ExactAudioCopy v0.95b4
#
DISCID=b00eb70d
DTITLE=Eric Clapton - 1992-01-16 - Completely Unplugged - CD2
DYEAR=1992
DGENRE=Blues
TTITLE0=Band Introductions
TTITLE1=San Fransisco Bay Blues
TTITLE2=Malted Milk
TTITLE3=Signe 3
TTITLE4=Tears In Heaven 2
TTITLE5=My Father's Eyes 2
TTITLE6=Rollin' And Tumblin'
TTITLE7=Running On Faith 2
TTITLE8=Walking Blues 2
TTITLE9=San Fransisco Bay Blues 2
TTITLE10=Malted Milk 2
TTITLE11=Worried Life Blues
TTITLE12=Old Love
EXTD=
EXTT0=
EXTT1=
EXTT2=
EXTT3=
EXTT4=
EXTT5=
EXTT6=
EXTT7=
EXTT8=
EXTT9=
EXTT10=
EXTT11=
EXTT12=
PLAYORDER=
